<?xml version="1.0" encoding="UTF-8"?>
<svg xmlns="http://www.w3.org/2000/svg" width="0" height="0" style="position:absolute" aria-hidden="true">
  <defs>
    <!-- 01 Triage: concentric arcs offset, signal converging to clarity -->
    <symbol id="sigil-01" viewBox="0 0 64 64" fill="none" stroke="currentColor" stroke-width="1.5" stroke-linecap="round">
      <path d="M12 32a20 20 0 0 1 40 0" />
      <path d="M18 32a14 14 0 0 1 28 0" />
      <path d="M24 32a8 8 0 0 1 16 0" />
      <circle cx="32" cy="40" r="1.2" fill="currentColor" />
    </symbol>

    <!-- 02 Scope: square frame with a quadrant cut away -->
    <symbol id="sigil-02" viewBox="0 0 64 64" fill="none" stroke="currentColor" stroke-width="1.5" stroke-linecap="round">
      <path d="M14 14h36v36" />
      <path d="M14 14v26h26" />
      <path d="M32 14v12H14" />
    </symbol>

    <!-- 03 Shape: stacked horizontal lines + vertical spine -->
    <symbol id="sigil-03" viewBox="0 0 64 64" fill="none" stroke="currentColor" stroke-width="1.5" stroke-linecap="round">
      <path d="M14 20h36" />
      <path d="M14 32h36" />
      <path d="M14 44h36" />
      <path d="M32 14v36" />
    </symbol>

    <!-- 04 Pack: overlapping rectangles staggered like pages -->
    <symbol id="sigil-04" viewBox="0 0 64 64" fill="none" stroke="currentColor" stroke-width="1.5" stroke-linecap="round">
      <rect x="16" y="20" width="28" height="32" rx="2" />
      <rect x="20" y="14" width="28" height="32" rx="2" opacity="0.6" />
    </symbol>

    <!-- 05 Spike: line ascending through a circle -->
    <symbol id="sigil-05" viewBox="0 0 64 64" fill="none" stroke="currentColor" stroke-width="1.5" stroke-linecap="round">
      <circle cx="32" cy="32" r="14" />
      <path d="M16 48 L48 16" />
    </symbol>

    <!-- 06 Slice: vertical ruled fringe, stack cut into slices -->
    <symbol id="sigil-06" viewBox="0 0 64 64" fill="none" stroke="currentColor" stroke-width="1.5" stroke-linecap="round">
      <path d="M20 14v36" />
      <path d="M26 14v36" />
      <path d="M32 14v36" />
      <path d="M38 14v36" />
      <path d="M44 14v36" />
    </symbol>

    <!-- 07 Readiness: crosshair inside bracket frame -->
    <symbol id="sigil-07" viewBox="0 0 64 64" fill="none" stroke="currentColor" stroke-width="1.5" stroke-linecap="round">
      <path d="M14 20v-6h6" />
      <path d="M44 14h6v6" />
      <path d="M14 44v6h6" />
      <path d="M44 50h6v-6" />
      <circle cx="32" cy="32" r="6" />
      <path d="M32 22v4 M32 38v4 M22 32h4 M38 32h4" />
    </symbol>

    <!-- 08 Scaffold: grid intersection — 3 verticals × 2 horizontals -->
    <symbol id="sigil-08" viewBox="0 0 64 64" fill="none" stroke="currentColor" stroke-width="1.5" stroke-linecap="round">
      <path d="M22 14v36" />
      <path d="M32 14v36" />
      <path d="M42 14v36" />
      <path d="M14 24h36" />
      <path d="M14 40h36" />
    </symbol>

    <!-- 09 Build: open triangle pointing up-right with one edge extended -->
    <symbol id="sigil-09" viewBox="0 0 64 64" fill="none" stroke="currentColor" stroke-width="1.5" stroke-linecap="round">
      <path d="M16 48 L48 16 L48 48 Z" />
      <path d="M16 48 L8 48" />
    </symbol>

    <!-- 10 Close: circle with a horizontal line through the meridian -->
    <symbol id="sigil-10" viewBox="0 0 64 64" fill="none" stroke="currentColor" stroke-width="1.5" stroke-linecap="round">
      <circle cx="32" cy="32" r="18" />
      <path d="M10 32h44" />
    </symbol>
  </defs>
</svg>
